<?xml version="1.0" encoding="UTF-8"?>
<svg width="800px" height="800px" viewBox="0 0 24 24" version="1.1" xmlns="http://www.w3.org/2000/svg">
    <path fill="#FF8C42" d="M12,2C6.477,2,2,6.477,2,12c0,5.523,4.477,10,10,10s10-4.477,10-10C22,6.477,17.523,2,12,2z M16.5,8.5 c0.828,0,1.5,0.672,1.5,1.5s-0.672,1.5-1.5,1.5S15,10.828,15,10S15.672,8.5,16.5,8.5z M7.5,8.5C8.328,8.5,9,9.172,9,10 s-0.672,1.5-1.5,1.5S6,10.828,6,10S6.672,8.5,7.5,8.5z M12,18c-3.314,0-6-2.686-6-6h12C18,15.314,15.314,18,12,18z"/>
</svg>
